HIERARCHY
ROOT Hips
{
	OFFSET 0.000000 71.427986 0.000000
	CHANNELS 6 Xposition Yposition Zposition Xrotation Yrotation Zrotation
	JOINT Pelvis
	{
		OFFSET 0.000000 0.000000 0.000000
		CHANNELS 3 Xrotation Yrotation Zrotation
		JOINT LeftUpLeg
		{
			OFFSET 6.797100 -2.508499 -1.318700
			CHANNELS 3 Xrotation Yrotation Zrotation
			JOINT LeftLeg
			{
				OFFSET 0.069008 -29.241863 0.690200
				CHANNELS 3 Xrotation Yrotation Zrotation
				JOINT LeftFoot
				{
					OFFSET -0.069008 -29.568123 -0.266800
					CHANNELS 3 Xrotation Yrotation Zrotation
					JOINT LeftToeBase
					{
						OFFSET 3.145500 -8.631000 16.059900
						CHANNELS 3 Xrotation Yrotation Zrotation
						End Site
						{
							OFFSET 0.000000 18.501587 0.000000
						}
					}
				}
			}
			JOINT Left_ShortSleeve
			{
				OFFSET 0.265923 -10.480953 1.153800
				CHANNELS 3 Xrotation Yrotation Zrotation
				End Site
				{
					OFFSET 1.725763 19.823879 0.000000
				}
			}
		}
		JOINT RightUpLeg
		{
			OFFSET -6.797100 -2.508499 -1.318700
			CHANNELS 3 Xrotation Yrotation Zrotation
			JOINT RightLeg
			{
				OFFSET -0.082453 -29.241932 0.688000
				CHANNELS 3 Xrotation Yrotation Zrotation
				JOINT RightFoot
				{
					OFFSET 0.082453 -29.568058 -0.264600
					CHANNELS 3 Xrotation Yrotation Zrotation
					JOINT RightToeBase
					{
						OFFSET -3.115300 -8.682800 16.113400
						CHANNELS 3 Xrotation Yrotation Zrotation
						End Site
						{
							OFFSET 0.000000 18.567114 0.000000
						}
					}
				}
			}
			JOINT Right_ShortSleeve
			{
				OFFSET -0.265923 -10.480953 1.153800
				CHANNELS 3 Xrotation Yrotation Zrotation
				End Site
				{
					OFFSET -1.725766 19.823910 0.000000
				}
			}
		}
	}
	JOINT Spine
	{
		OFFSET 0.000000 13.368103 0.470500
		CHANNELS 3 Xrotation Yrotation Zrotation
		JOINT Spine1
		{
			OFFSET 0.147000 13.837402 0.538800
			CHANNELS 3 Xrotation Yrotation Zrotation
			JOINT Spine2
			{
				OFFSET 0.168000 16.242897 -1.435500
				CHANNELS 3 Xrotation Yrotation Zrotation
				JOINT Neck
				{
					OFFSET 0.217200 18.631500 -1.679100
					CHANNELS 3 Xrotation Yrotation Zrotation
					JOINT Head
					{
						OFFSET 0.000000 6.599396 1.385900
						CHANNELS 3 Xrotation Yrotation Zrotation
						JOINT Hat
						{
							OFFSET -0.532200 27.220596 -10.096100
							CHANNELS 3 Xrotation Yrotation Zrotation
							End Site
							{
								OFFSET 0.000000 22.029861 0.000000
							}
						}
						JOINT HairD
						{
							OFFSET -10.777400 17.437393 -1.325900
							CHANNELS 3 Xrotation Yrotation Zrotation
							JOINT HairD1
							{
								OFFSET -3.290299 -11.051193 1.062200
								CHANNELS 3 Xrotation Yrotation Zrotation
								End Site
								{
									OFFSET 0.000000 11.579437 0.000000
								}
							}
						}
						JOINT HairB
						{
							OFFSET -10.777400 17.437393 1.467900
							CHANNELS 3 Xrotation Yrotation Zrotation
							JOINT HairB1
							{
								OFFSET -1.561200 -12.956299 3.590200
								CHANNELS 3 Xrotation Yrotation Zrotation
								End Site
								{
									OFFSET 0.000000 13.534866 0.000000
								}
							}
						}
						JOINT HairA
						{
							OFFSET 9.713100 17.437393 1.467900
							CHANNELS 3 Xrotation Yrotation Zrotation
							JOINT HairA1
							{
								OFFSET 1.561200 -12.956299 3.590200
								CHANNELS 3 Xrotation Yrotation Zrotation
								End Site
								{
									OFFSET 0.000000 13.534866 0.000000
								}
							}
						}
						JOINT HairC
						{
							OFFSET 9.713100 17.437393 -1.325900
							CHANNELS 3 Xrotation Yrotation Zrotation
							JOINT HairC1
							{
								OFFSET 3.290300 -11.051193 1.062200
								CHANNELS 3 Xrotation Yrotation Zrotation
								End Site
								{
									OFFSET 0.000000 11.579437 0.000000
								}
							}
						}
					}
				}
				JOINT LeftShoulder
				{
					OFFSET 5.101800 15.108002 -2.763700
					CHANNELS 3 Xrotation Yrotation Zrotation
					JOINT LeftArm
					{
						OFFSET 9.825497 2.506317 -1.597400
						CHANNELS 3 Xrotation Yrotation Zrotation
						JOINT LeftForeArm
						{
							OFFSET 21.966244 0.000000 0.000000
							CHANNELS 3 Xrotation Yrotation Zrotation
							JOINT LeftHand
							{
								OFFSET 33.879036 0.000000 0.000000
								CHANNELS 3 Xrotation Yrotation Zrotation
								JOINT LeftHandThumb1
								{
									OFFSET 6.715286 -2.359680 3.363841
									CHANNELS 3 Xrotation Yrotation Zrotation
									JOINT LeftHandThumb2
									{
										OFFSET 2.507072 -1.447464 1.447461
										CHANNELS 3 Xrotation Yrotation Zrotation
										JOINT LeftHandThumb3
										{
											OFFSET 2.898338 -1.673355 1.673357
											CHANNELS 3 Xrotation Yrotation Zrotation
											End Site
											{
												OFFSET -0.295959 3.727692 -0.131651
											}
										}
									}
								}
								JOINT LeftHandIndex1
								{
									OFFSET 14.190811 -0.254547 3.840278
									CHANNELS 3 Xrotation Yrotation Zrotation
									JOINT LeftHandIndex2
									{
										OFFSET 3.551727 0.000000 -0.000000
										CHANNELS 3 Xrotation Yrotation Zrotation
										JOINT LeftHandIndex3
										{
											OFFSET 2.894196 0.000000 0.000000
											CHANNELS 3 Xrotation Yrotation Zrotation
											End Site
											{
												OFFSET -1.000603 2.690872 0.366626
											}
										}
									}
								}
								JOINT LeftHandMiddle1
								{
									OFFSET 13.776489 0.000000 0.000000
									CHANNELS 3 Xrotation Yrotation Zrotation
									JOINT LeftHandMiddle2
									{
										OFFSET 3.438232 0.000000 0.000000
										CHANNELS 3 Xrotation Yrotation Zrotation
										JOINT LeftHandMiddle3
										{
											OFFSET 3.691551 0.000000 0.000000
											CHANNELS 3 Xrotation Yrotation Zrotation
											End Site
											{
												OFFSET -1.082298 3.499527 0.457670
											}
										}
									}
								}
								JOINT LeftHandRing1
								{
									OFFSET 13.966164 -0.268127 -3.067488
									CHANNELS 3 Xrotation Yrotation Zrotation
									JOINT LeftHandRing2
									{
										OFFSET 3.162567 0.000000 0.000000
										CHANNELS 3 Xrotation Yrotation Zrotation
										JOINT LeftHandRing3
										{
											OFFSET 3.324348 0.000000 0.000000
											CHANNELS 3 Xrotation Yrotation Zrotation
											End Site
											{
												OFFSET -0.861900 3.184998 0.405154
											}
										}
									}
								}
								JOINT LeftHandPinky1
								{
									OFFSET 13.131393 -0.168503 -5.746925
									CHANNELS 3 Xrotation Yrotation Zrotation
									JOINT LeftHandPinky2
									{
										OFFSET 2.849182 0.000000 0.000000
										CHANNELS 3 Xrotation Yrotation Zrotation
										JOINT LeftHandPinky3
										{
											OFFSET 2.805038 0.000000 0.000000
											CHANNELS 3 Xrotation Yrotation Zrotation
											End Site
											{
												OFFSET -0.882500 2.642609 0.325652
											}
										}
									}
								}
							}
							JOINT Left_Sleeve
							{
								OFFSET 6.592125 -0.646545 0.805568
								CHANNELS 3 Xrotation Yrotation Zrotation
								End Site
								{
									OFFSET -0.000179 20.275787 -0.000000
								}
							}
						}
					}
				}
				JOINT RightShoulder
				{
					OFFSET -5.731700 15.108002 -2.763700
					CHANNELS 3 Xrotation Yrotation Zrotation
					JOINT RightArm
					{
						OFFSET -9.825497 2.506317 -1.597400
						CHANNELS 3 Xrotation Yrotation Zrotation
						JOINT RightForeArm
						{
							OFFSET -21.966242 0.000000 0.000000
							CHANNELS 3 Xrotation Yrotation Zrotation
							JOINT RightHand
							{
								OFFSET -33.879032 0.000000 0.000000
								CHANNELS 3 Xrotation Yrotation Zrotation
								JOINT RightHandThumb1
								{
									OFFSET -6.715286 -2.359680 3.363841
									CHANNELS 3 Xrotation Yrotation Zrotation
									JOINT RightHandThumb2
									{
										OFFSET -2.507072 -1.447464 1.447461
										CHANNELS 3 Xrotation Yrotation Zrotation
										JOINT RightHandThumb3
										{
											OFFSET -2.898338 -1.673355 1.673357
											CHANNELS 3 Xrotation Yrotation Zrotation
											End Site
											{
												OFFSET 0.295959 3.727692 -0.131651
											}
										}
									}
								}
								JOINT RightHandIndex1
								{
									OFFSET -14.190811 -0.254547 3.840278
									CHANNELS 3 Xrotation Yrotation Zrotation
									JOINT RightHandIndex2
									{
										OFFSET -3.551727 0.000000 -0.000000
										CHANNELS 3 Xrotation Yrotation Zrotation
										JOINT RightHandIndex3
										{
											OFFSET -2.894196 0.000000 0.000000
											CHANNELS 3 Xrotation Yrotation Zrotation
											End Site
											{
												OFFSET 1.000603 2.690872 0.366626
											}
										}
									}
								}
								JOINT RightHandMiddle1
								{
									OFFSET -13.776489 0.000000 0.000000
									CHANNELS 3 Xrotation Yrotation Zrotation
									JOINT RightHandMiddle2
									{
										OFFSET -3.438232 0.000000 0.000000
										CHANNELS 3 Xrotation Yrotation Zrotation
										JOINT RightHandMiddle3
										{
											OFFSET -3.691551 0.000000 0.000000
											CHANNELS 3 Xrotation Yrotation Zrotation
											End Site
											{
												OFFSET 1.082298 3.499527 0.457670
											}
										}
									}
								}
								JOINT RightHandRing1
								{
									OFFSET -13.966164 -0.268127 -3.067488
									CHANNELS 3 Xrotation Yrotation Zrotation
									JOINT RightHandRing2
									{
										OFFSET -3.162567 0.000000 0.000000
										CHANNELS 3 Xrotation Yrotation Zrotation
										JOINT RightHandRing3
										{
											OFFSET -3.324348 0.000000 0.000000
											CHANNELS 3 Xrotation Yrotation Zrotation
											End Site
											{
												OFFSET 0.861900 3.184998 0.405154
											}
										}
									}
								}
								JOINT RightHandPinky1
								{
									OFFSET -13.131393 -0.168503 -5.746925
									CHANNELS 3 Xrotation Yrotation Zrotation
									JOINT RightHandPinky2
									{
										OFFSET -2.849182 0.000000 0.000000
										CHANNELS 3 Xrotation Yrotation Zrotation
										JOINT RightHandPinky3
										{
											OFFSET -2.805038 0.000000 0.000000
											CHANNELS 3 Xrotation Yrotation Zrotation
											End Site
											{
												OFFSET 0.882500 2.642609 0.325652
											}
										}
									}
								}
							}
							JOINT Right_Sleeve
							{
								OFFSET -6.592125 -0.646545 0.805568
								CHANNELS 3 Xrotation Yrotation Zrotation
								End Site
								{
									OFFSET 0.000179 20.275787 -0.000000
								}
							}
						}
					}
				}
				JOINT Bind_Right_JacketString
				{
					OFFSET -3.534800 11.969597 7.200700
					CHANNELS 3 Xrotation Yrotation Zrotation
					JOINT Bind_Right_JacketString1
					{
						OFFSET -0.319900 -6.102600 2.794100
						CHANNELS 3 Xrotation Yrotation Zrotation
						End Site
						{
							OFFSET 0.000000 6.719452 0.000000
						}
					}
				}
				JOINT Bind_Left_JacketString
				{
					OFFSET 2.904800 11.969597 7.200700
					CHANNELS 3 Xrotation Yrotation Zrotation
					JOINT Bind_Left_JacketString1
					{
						OFFSET 0.364800 -5.904503 3.186800
						CHANNELS 3 Xrotation Yrotation Zrotation
						End Site
						{
							OFFSET 0.000000 6.719513 0.000000
						}
					}
				}
				JOINT HairE
				{
					OFFSET 5.915200 17.612701 -11.592200
					CHANNELS 3 Xrotation Yrotation Zrotation
					JOINT HairE1
					{
						OFFSET 0.289200 -7.171898 -1.284500
						CHANNELS 3 Xrotation Yrotation Zrotation
						End Site
						{
							OFFSET 0.000000 7.291756 0.000000
						}
					}
				}
				JOINT HairF
				{
					OFFSET -0.864800 17.612701 -11.592200
					CHANNELS 3 Xrotation Yrotation Zrotation
					JOINT HairF1
					{
						OFFSET 0.000000 -14.087097 -2.127501
						CHANNELS 3 Xrotation Yrotation Zrotation
						End Site
						{
							OFFSET 0.000000 14.246841 0.000000
						}
					}
				}
				JOINT HairG
				{
					OFFSET -8.087700 17.612701 -11.592200
					CHANNELS 3 Xrotation Yrotation Zrotation
					JOINT HairG1
					{
						OFFSET -0.293600 -6.081398 -0.910100
						CHANNELS 3 Xrotation Yrotation Zrotation
						End Site
						{
							OFFSET 0.000000 6.156120 0.000000
						}
					}
				}
			}
		}
	}
	JOINT Pouch
	{
		OFFSET 0.000000 4.394501 10.847300
		CHANNELS 3 Xrotation Yrotation Zrotation
		End Site
		{
			OFFSET 0.000000 21.880577 0.000000
		}
	}
	JOINT Bag
	{
		OFFSET -13.229000 4.813004 -0.593300
		CHANNELS 3 Xrotation Yrotation Zrotation
		End Site
		{
			OFFSET 0.000000 21.880577 0.000000
		}
	}
	JOINT OccupyGuyFacialAnim_Joint
	{
		OFFSET 1.000000 -70.206398 -1.655000
		CHANNELS 3 Xrotation Yrotation Zrotation
		End Site
		{
			OFFSET 0.000000 21.880577 0.000000
		}
	}
}
MOTION
Frames: 4
Frame Time: 0.016667
1.903011 59.880569 12.412870 0.269934 -30.109048 -2.525807 0.000000 -0.000001 -0.000000 -42.942711 2.743886 19.754608 67.620068 1.019150 0.378616 -25.750035 -7.841721 -10.426410 -0.000000 0.000002 0.000000 -0.000004 -0.000001 0.000001 -14.538343 -16.091748 -27.841982 54.753805 -9.373114 -7.913550 -20.268241 -10.020805 21.918637 -0.000000 0.000000 -0.000001 -0.000000 -0.000004 -0.000000 11.981432 9.236179 -5.445707 2.723684 1.552891 -1.611382 2.746780 1.530456 -1.591251 -10.034650 9.444452 7.085846 -0.518330 7.859692 -1.080338 0.000001 0.000000 0.000000 0.000001 0.000000 0.000000 0.000001 0.000000 0.000000 0.000001 0.000000 -0.000000 0.000000 0.000000 -0.000000 0.000001 0.000000 -0.000000 0.000000 0.000000 -0.000000 0.000001 0.000000 0.000000 0.000001 0.000000 0.000000 0.920471 1.300392 -6.093180 -59.606392 1.454190 -47.058794 -0.000004 -109.149804 -0.000021 1.999420 -7.850079 -14.416072 -6.141200 -11.690808 -6.761678 9.914146 42.595498 3.409840 0.000004 -0.000002 -0.000002 0.255315 3.378228 -45.814327 5.654071 5.847733 -88.067435 0.000002 0.000005 -0.000003 -0.461473 3.841596 -39.722679 6.450755 5.820350 -95.892864 0.000001 0.000003 -0.000001 0.469727 4.966799 -39.799434 8.181040 5.368629 -113.502998 0.000000 0.000000 -0.000001 -3.762423 9.063702 -45.253821 5.342530 5.829005 -85.005331 -0.000004 -0.000000 -0.000001 0.000003 0.000001 -0.000000 2.590444 21.406223 -4.318638 -39.313476 17.241004 46.560402 0.000015 113.312463 -0.000016 -14.981735 10.510289 -8.958497 -7.341086 13.749667 7.412331 9.855792 -44.489089 -3.903241 0.000003 -0.000002 0.000001 -0.124373 -2.384793 45.108881 4.500575 -4.654525 88.071191 -0.000003 0.000002 0.000004 -0.761625 -2.932914 39.031082 5.133891 -4.632752 95.881649 0.000002 -0.000001 0.000001 0.154756 -4.068783 39.122668 6.509733 -4.273608 113.462863 -0.000000 -0.000003 -0.000001 -4.198881 -8.025524 44.637776 4.252906 -4.639631 85.014805 0.000000 0.000003 0.000001 -0.000000 0.000001 0.000004 0.000002 -0.000002 0.000000 0.000002 -0.000001 0.000001 0.000002 -0.000002 -0.000000 0.000002 -0.000002 -0.000000 0.000002 -0.000002 0.000000 0.000002 -0.000001 0.000001 0.000002 -0.000002 -0.000000 0.000002 -0.000002 -0.000000 0.000002 -0.000002 0.000000 0.000002 -0.000001 0.000001 0.000000 -0.000001 -0.000000 0.000000 -0.000001 -0.000000 0.000000 -0.000001 -0.000000 
1.831198 59.751297 11.697938 -0.353253 -31.874235 -2.445162 -0.000000 -0.000001 0.000000 -42.565025 2.948450 20.548962 67.605772 1.553413 -0.084485 -25.306155 -7.622640 -10.849703 0.000000 -0.000000 -0.000000 0.000001 0.000000 -0.000000 -15.231397 -15.603524 -28.208869 55.500778 -9.079668 -7.181415 -20.689027 -11.887817 22.402978 -0.000000 -0.000001 0.000001 -0.000000 -0.000001 0.000001 12.022861 9.016141 -5.235561 2.734888 1.491814 -1.567835 2.758106 1.469819 -1.547380 -9.735265 9.809008 6.855221 -0.083816 9.175666 -1.657999 -0.000000 0.000000 -0.000000 -0.000000 0.000000 -0.000000 -0.000000 0.000000 -0.000000 -0.000000 0.000000 -0.000000 -0.000000 0.000000 -0.000000 -0.000000 0.000000 -0.000000 -0.000000 0.000000 -0.000000 -0.000000 0.000000 -0.000000 -0.000000 0.000000 -0.000000 0.919445 1.163403 -5.967906 -60.124455 1.960619 -46.784156 0.000092 -108.853196 0.000092 2.167997 -7.474089 -14.181535 -6.141202 -11.690806 -6.761677 9.914148 42.595505 3.409844 -0.000001 -0.000004 0.000000 0.255315 3.378230 -45.814320 5.654069 5.847733 -88.067435 0.000002 -0.000000 0.000002 -0.461473 3.841597 -39.722676 6.450751 5.820352 -95.892871 0.000005 0.000004 -0.000002 0.469725 4.966801 -39.799430 8.181036 5.368628 -113.502998 0.000002 0.000002 -0.000001 -3.762425 9.063705 -45.253818 5.342531 5.829007 -85.005331 -0.000003 -0.000001 -0.000001 0.000001 0.000000 -0.000000 2.580090 21.227864 -4.233255 -40.248864 17.716344 48.393909 0.000030 112.648220 -0.000033 -15.571919 11.037980 -9.454327 -7.341082 13.749666 7.412338 9.855789 -44.489089 -3.903246 -0.000001 0.000000 0.000003 -0.124372 -2.384794 45.108885 4.500579 -4.654522 88.071184 -0.000002 0.000004 -0.000001 -0.761624 -2.932917 39.031085 5.133885 -4.632758 95.881649 0.000001 0.000000 -0.000001 0.154755 -4.068790 39.122675 6.509731 -4.273609 113.462870 -0.000000 0.000001 -0.000003 -4.198878 -8.025524 44.637776 4.252908 -4.639629 85.014811 -0.000002 0.000001 -0.000001 0.000003 0.000002 -0.000001 0.000002 0.000000 0.000000 0.000002 0.000000 0.000000 0.000002 0.000000 0.000000 0.000002 0.000000 0.000000 0.000002 0.000000 0.000000 0.000002 0.000000 0.000000 0.000002 0.000000 0.000000 0.000002 0.000000 0.000000 0.000002 0.000000 0.000000 0.000002 0.000000 0.000000 -0.000000 -0.000001 0.000000 -0.000000 -0.000001 0.000000 -0.000000 -0.000001 0.000000 
1.733420 59.630745 10.941410 -0.893893 -33.438311 -2.307517 -0.000000 -0.000001 0.000000 -42.283485 3.157610 21.292087 67.492712 2.004109 -0.513957 -24.740231 -7.449276 -11.210284 -0.000000 -0.000001 -0.000000 0.000001 0.000001 0.000001 -15.697665 -15.135774 -28.013241 55.780468 -8.830267 -7.110012 -21.157506 -14.084957 23.120281 0.000000 -0.000001 -0.000002 -0.000002 0.000005 0.000002 12.022225 8.776415 -5.041760 2.734735 1.427244 -1.530578 2.757620 1.406166 -1.509497 -9.369967 10.141571 6.579431 0.350805 10.288568 -2.099689 -0.000001 -0.000000 0.000000 -0.000001 -0.000000 0.000000 -0.000001 -0.000000 0.000000 -0.000001 -0.000000 0.000000 -0.000001 -0.000000 0.000000 -0.000001 -0.000000 0.000000 -0.000001 -0.000000 0.000000 -0.000001 -0.000000 0.000000 -0.000001 -0.000000 0.000000 0.848220 1.234096 -5.801386 -60.427380 2.491314 -46.713067 0.000188 -108.401010 0.000182 2.365844 -7.630702 -14.447792 -6.141200 -11.690804 -6.761682 9.914150 42.595505 3.409837 -0.000002 0.000001 -0.000001 0.255309 3.378232 -45.814320 5.654069 5.847735 -88.067435 0.000001 0.000002 -0.000001 -0.461473 3.841599 -39.722673 6.450751 5.820350 -95.892871 0.000003 0.000001 -0.000003 0.469722 4.966799 -39.799430 8.181038 5.368627 -113.502998 -0.000001 -0.000000 -0.000002 -3.762427 9.063703 -45.253818 5.342535 5.829005 -85.005324 -0.000002 -0.000002 0.000003 0.000003 0.000000 0.000002 2.551272 20.915487 -4.132409 -41.238333 18.236701 50.341414 -0.000041 112.007753 0.000042 -15.687961 11.432319 -9.498039 -7.341084 13.749671 7.412328 9.855787 -44.489089 -3.903248 0.000001 -0.000001 0.000000 -0.124368 -2.384790 45.108878 4.500579 -4.654522 88.071191 0.000001 0.000000 -0.000001 -0.761622 -2.932914 39.031085 5.133885 -4.632757 95.881656 -0.000000 0.000000 -0.000001 0.154756 -4.068785 39.122668 6.509734 -4.273607 113.462870 0.000002 -0.000000 0.000001 -4.198876 -8.025520 44.637776 4.252910 -4.639628 85.014805 -0.000001 0.000001 -0.000003 0.000002 0.000002 0.000003 -0.000003 0.000001 0.000001 -0.000002 -0.000001 0.000000 -0.000003 0.000001 0.000001 -0.000003 0.000001 0.000001 -0.000003 0.000001 0.000001 -0.000002 -0.000001 0.000000 -0.000003 0.000001 0.000001 -0.000003 0.000001 0.000001 -0.000003 0.000001 0.000001 -0.000002 -0.000001 0.000000 -0.000000 -0.000001 0.000000 -0.000000 -0.000001 0.000000 -0.000000 -0.000001 0.000000 
1.615268 59.519913 10.141800 -1.374454 -34.809110 -2.114881 0.000000 -0.000004 -0.000000 -42.070670 3.355571 21.959719 67.262269 2.388881 -0.899134 -24.042515 -7.321967 -11.525587 0.000000 0.000002 -0.000000 -0.000001 0.000002 -0.000000 -16.134823 -14.732754 -27.744631 55.904487 -8.698399 -7.187160 -21.926362 -15.756495 23.680109 -0.000000 0.000001 0.000000 -0.000000 0.000000 -0.000001 12.008642 8.527999 -4.856366 2.730768 1.361158 -1.496504 2.753147 1.341172 -1.474809 -8.933135 10.442605 6.282898 0.750990 11.295835 -2.539360 0.000000 -0.000000 -0.000000 0.000000 -0.000000 -0.000000 0.000000 -0.000000 -0.000000 0.000000 -0.000000 -0.000000 -0.000000 0.000000 -0.000000 0.000000 -0.000000 -0.000000 -0.000000 0.000000 -0.000000 0.000000 -0.000000 -0.000000 0.000000 -0.000000 -0.000000 0.768325 1.378891 -5.675012 -60.613926 2.997514 -46.738001 0.000140 -107.926572 0.000141 2.461867 -7.936542 -14.879193 -6.141201 -11.690805 -6.761678 9.914141 42.595505 3.409842 0.000001 -0.000001 -0.000001 0.255312 3.378231 -45.814320 5.654071 5.847738 -88.067441 0.000003 0.000002 -0.000002 -0.461474 3.841602 -39.722676 6.450751 5.820356 -95.892871 0.000001 0.000003 -0.000002 0.469723 4.966802 -39.799430 8.181039 5.368631 -113.502998 -0.000001 0.000001 -0.000001 -3.762426 9.063705 -45.253818 5.342529 5.829005 -85.005324 -0.000005 -0.000003 0.000003 0.000004 -0.000004 -0.000000 2.521652 20.583212 -4.040480 -42.285401 18.731708 52.282147 0.000086 111.411314 -0.000086 -15.585590 11.755250 -9.399781 -7.341087 13.749663 7.412336 9.855791 -44.489083 -3.903239 0.000000 -0.000001 0.000001 -0.124372 -2.384794 45.108881 4.500578 -4.654524 88.071191 -0.000001 -0.000002 0.000002 -0.761624 -2.932917 39.031085 5.133886 -4.632756 95.881656 0.000004 0.000000 0.000001 0.154757 -4.068791 39.122671 6.509737 -4.273607 113.462863 -0.000001 0.000001 0.000001 -4.198876 -8.025526 44.637783 4.252911 -4.639629 85.014805 -0.000000 0.000001 0.000002 0.000001 0.000004 0.000002 -0.000000 -0.000001 0.000000 0.000002 -0.000001 0.000000 -0.000000 -0.000001 -0.000000 -0.000000 -0.000001 -0.000000 -0.000000 -0.000001 0.000000 0.000002 -0.000001 0.000000 -0.000000 -0.000001 -0.000000 -0.000000 -0.000001 -0.000000 -0.000000 -0.000001 0.000000 0.000002 -0.000001 0.000000 0.000000 -0.000004 -0.000000 0.000000 -0.000004 -0.000000 0.000000 -0.000004 -0.000000 
